<svg width="50" height="50" viewBox="0 0 50 50" fill="none" xmlns="http://www.w3.org/2000/svg">
<g id="youtube">
<path id="Vector" d="M46.9583 13.3749C46.7109 12.3862 46.2068 11.4803 45.4972 10.7487C44.7875 10.0171 43.8974 9.48572 42.9167 9.20825C39.3333 8.33325 25 8.33325 25 8.33325C25 8.33325 10.6667 8.33325 7.08333 9.29159C6.10259 9.56905 5.21245 10.1004 4.5028 10.832C3.79315 11.5636 3.28914 12.4695 3.04166 13.4583C2.38586 17.0948 2.06507 20.7839 2.08333 24.4791C2.05995 28.2021 2.38076 31.9193 3.04166 35.5832C3.31449 36.5413 3.8298 37.4127 4.5378 38.1134C5.24579 38.8141 6.12254 39.3204 7.08333 39.5832C10.6667 40.5416 25 40.5416 25 40.5416C25 40.5416 39.3333 40.5416 42.9167 39.5832C43.8974 39.3058 44.7875 38.7744 45.4972 38.0428C46.2068 37.3112 46.7109 36.4053 46.9583 35.4166C47.6091 31.8074 47.9298 28.1464 47.9167 24.4791C47.94 20.7561 47.6192 17.0389 46.9583 13.3749V13.3749Z" stroke="white" stroke-width="2" stroke-linecap="round" stroke-linejoin="round"/>
<path id="Vector_2" d="M20.3125 31.2917L32.2917 24.4792L20.3125 17.6667V31.2917Z" stroke="white" stroke-width="2" stroke-linecap="round" stroke-linejoin="round"/>
</g>
</svg>
